:SAMPLES-PER-SECOND 30
:FULLY-SPECIFIED
:DEGREES
717
root  -16.2711 38.6805 6.12264 -81.1753 -85.1166 72.3595
RightUpLeg  -13.9234 -16.6363 -13.6993
RightLeg  5.74293 -7.75455 1.27872
RightFoot  -3.78938 -0.677427 9.84276
RightToes  -8.73116e-010 0 -3.6325e-017
Spine  16.7667 -1.28186 1.39037
Spine1  6.45257 0.498752 -6.9675
HEad  -22.8091 0.473965 -6.93019
LeftShoulder1  0.19453 2.95417 -29.1884
LeftArm  7.26015 3.69009 -38.2271
LeftForeArm  18.1331 -28.1107 -5.0303
LeftHand  -0.168074 0.579885 4.04535
RightShoulder  -0.369966 -4.57693 27.4213
RightArm  11.152 -11.4401 46.9637
RightForeArm  1.48428 7.74851 6.63272
RightHand  -0.659022 4.27661 -8.17585
LeftUpLeg  3.2151 0.0474386 -3.70702
LeftLeg  23.4035 -3.58236 -1.36391
LeftFoot  -16.9471 0.235913 2.76622
LeftToes  -5.63919e-011 3.32596e-011 1.92487e-011
718
root  -15.1491 39.0199 6.40603 -102.593 -86.0397 93.655
RightUpLeg  -13.8241 -18.8163 -11.4992
RightLeg  13.3054 -3.17265 -0.223146
RightFoot  -4.29819 -0.62898 9.7212
RightToes  -8.73116e-010 0 -3.6325e-017
Spine  16.2802 -0.948817 2.47785
Spine1  6.61062 1.1997 -8.13668
HEad  -21.1226 2.11515 -8.44295
LeftShoulder1  0.223775 2.8691 -29.1285
LeftArm  6.35967 6.82898 -38.2561
LeftForeArm  14.1614 -22.3129 -4.48884
LeftHand  -0.120512 1.84067 3.65722
RightShoulder  -0.365394 -4.57304 27.1115
RightArm  10.8366 -10.7931 47.268
RightForeArm  2.71275 7.4945 6.50484
RightHand  -0.630881 4.04733 -8.01191
LeftUpLeg  2.77234 1.55422 -3.24216
LeftLeg  20.7986 -3.3073 -0.98691
LeftFoot  -13.8889 0.153253 3.07035
LeftToes  -5.63919e-011 3.32596e-011 1.92487e-011
719
root  -14.0563 39.3064 6.6146 -113.982 -86.2524 105.107
RightUpLeg  -12.9779 -17.1438 -11.1253
RightLeg  21.6752 -1.67603 -1.07415
RightFoot  -4.67756 -0.569185 9.20874
RightToes  -8.73116e-010 0 -3.6325e-017
Spine  15.6119 -0.856943 1.90305
Spine1  6.35773 0.945191 -7.50112
HEad  -18.4572 3.01075 -9.18377
LeftShoulder1  0.225805 2.86199 -29.078
LeftArm  0.592506 10.6977 -37.8613
LeftForeArm  15.3235 -15.9759 -6.12276
LeftHand  -0.0497771 4.11378 2.6424
RightShoulder  -0.34504 -4.51608 26.9802
RightArm  10.6078 -10.2963 46.9495
RightForeArm  1.84437 8.23776 6.36811
RightHand  -0.692271 4.20166 -8.63702
LeftUpLeg  2.25306 3.01198 -2.98251
LeftLeg  17.9982 -4.1454 -0.839657
LeftFoot  -10.9464 0.0548413 2.95398
LeftToes  -5.63919e-011 3.32596e-011 1.92487e-011
720
root  -13.0117 39.4555 6.75496 -123.803 -86.2601 114.808
RightUpLeg  -11.2962 -13.8147 -11.3162
RightLeg  30.141 -2.42196 -1.7531
RightFoot  -5.63534 -0.492126 9.08962
RightToes  -8.73116e-010 0 -3.6325e-017
Spine  15.1676 -0.52197 0.700745
Spine1  5.88753 0.700141 -6.32951
HEad  -15.2035 2.96846 -8.63172
LeftShoulder1  0.133789 3.12784 -29.4271
LeftArm  -4.6403 13.9217 -36.8815
LeftForeArm  16.9037 -9.42241 -7.59663
LeftHand  -0.020387 5.90898 1.87344
RightShoulder  -0.365237 -4.58291 26.796
RightArm  11.1128 -10.4086 46.0873
RightForeArm  0.0613625 10.6875 6.14504
RightHand  -0.636814 3.6987 -8.37681
LeftUpLeg  1.62464 4.79452 -2.53949
LeftLeg  16.0861 -5.50499 -1.12733
LeftFoot  -8.77412 -0.0140876 3.0085
LeftToes  -5.63919e-011 3.32596e-011 1.92487e-011
721
root  -11.9658 39.4885 6.89079 -128.443 -86.0313 119.441
RightUpLeg  -9.28457 -11.3257 -11.5249
RightLeg  37.8088 -2.42729 -2.26962
RightFoot  -6.54196 -0.419166 8.91439
RightToes  -8.73116e-010 0 -3.6325e-017
Spine  14.299 -0.370498 0.0612862
Spine1  6.09505 0.653831 -6.36699
HEad  -13.1395 4.04279 -7.99039
LeftShoulder1  0.11385 3.18091 -29.1498
LeftArm  -5.80697 17.5262 -36.2726
LeftForeArm  17.5702 -5.74524 -7.33134
LeftHand  -0.0174299 6.67192 1.6519
RightShoulder  -0.440971 -4.80208 27.0339
RightArm  12.404 -10.335 45.4498
RightForeArm  -3.07175 13.7226 5.82525
RightHand  -0.691282 4.33867 -8.51604
LeftUpLeg  0.493059 5.46366 -2.6034
LeftLeg  14.9433 -5.84588 -1.38521
LeftFoot  -7.22276 -0.0547295 2.72806
LeftToes  -5.63919e-011 3.32596e-011 1.92487e-011
722
root  -10.8943 39.413 7.00189 -126.571 -85.6935 117.576
RightUpLeg  -6.74866 -9.51598 -11.916
RightLeg  44.1703 -1.45603 -1.79461
RightFoot  -7.07569 -0.354709 8.21243
RightToes  -8.73116e-010 0 -3.6325e-017
Spine  13.443 -0.304037 -0.545895
Spine1  6.57847 0.628732 -6.67244
HEad  -11.5553 3.73941 -6.83367
LeftShoulder1  0.116739 3.16821 -28.8756
LeftArm  -6.02865 21.3709 -35.399
LeftForeArm  20.3481 -4.8446 -6.8859
LeftHand  -0.0336752 7.59087 0.348647
RightShoulder  -0.520962 -5.02537 27.4304
RightArm  13.4173 -9.77015 45.0355
RightForeArm  -4.65339 16.5233 5.38572
RightHand  -0.690689 4.55664 -8.33037
LeftUpLeg  -1.27892 5.55203 -3.01614
LeftLeg  14.9326 -5.85556 -1.76523
LeftFoot  -6.0413 -0.0758894 2.42949
LeftToes  -5.63919e-011 3.32596e-011 1.92487e-011
723
root  -9.81313 39.271 7.09346 -128.019 -84.7797 118.81
RightUpLeg  -3.56162 -7.71127 -12.5956
RightLeg  48.6225 0.00720025 -0.334719
RightFoot  -7.31918 -0.313934 7.5264
RightToes  -8.73116e-010 0 -3.6325e-017
Spine  12.5895 0.146288 -1.1865
Spine1  7.60155 1.0308 -6.76545
HEad  -10.2405 3.9188 -6.17414
LeftShoulder1  0.00704041 3.48517 -29.9063
LeftArm  -5.29196 23.8953 -33.3914
LeftForeArm  23.7707 -5.01016 -7.02726
LeftHand  -0.0552824 7.14729 -1.04673
RightShoulder  -0.530694 -5.06383 27.2104
RightArm  13.2968 -8.6623 45.4457
RightForeArm  -5.26163 18.115 5.13047
RightHand  -0.79981 4.75756 -9.42034
LeftUpLeg  -3.00503 5.31741 -3.87395
LeftLeg  15.1568 -4.92641 -1.81121
LeftFoot  -4.72849 -0.0946568 2.12208
LeftToes  -5.63919e-011 3.32596e-011 1.92487e-011
724
root  -8.71013 39.1234 7.21295 -130.592 -83.8632 121.181
RightUpLeg  0.215277 -6.06668 -13.0461
RightLeg  50.4135 0.986414 0.919083
RightFoot  -6.90749 -0.324627 7.15628
RightToes  -8.73116e-010 0 -3.6325e-017
Spine  12.1155 0.686649 -0.437086
Spine1  8.1199 2.01137 -7.96447
HEad  -8.47263 2.63008 -5.75424
LeftShoulder1  0.0150859 3.46087 -29.8034
LeftArm  -4.57165 26.0541 -32.5638
LeftForeArm  25.5043 -5.63941 -7.28499
LeftHand  -0.053487 6.42904 -1.75232
RightShoulder  -0.594281 -5.25091 27.2655
RightArm  13.354 -7.39352 45.7657
RightForeArm  -5.29595 18.6808 5.08378
RightHand  -0.864389 5.49545 -9.50559
LeftUpLeg  -4.66867 5.02919 -4.66683
LeftLeg  15.0875 -3.67646 -1.6857
LeftFoot  -3.11906 -0.115689 1.88338
LeftToes  -5.63919e-011 3.32596e-011 1.92487e-011
725
root  -7.56721 38.9478 7.32024 -134.559 -83.1878 124.956
RightUpLeg  4.56343 -4.58998 -12.9746
RightLeg  49.3092 1.74094 1.82933
RightFoot  -6.48553 -0.368967 7.65343
RightToes  -8.73116e-010 0 -3.6325e-017
Spine  11.8343 1.13786 0.91064
Spine1  8.41751 2.91036 -9.01616
HEad  -7.2038 1.90381 -6.14236
LeftShoulder1  -0.0914049 3.75428 -30.4381
LeftArm  -4.09936 27.1313 -31.5621
LeftForeArm  24.7512 -6.37857 -7.40412
LeftHand  -0.0576909 6.76396 -1.6486
RightShoulder  -0.523826 -5.07161 26.6129
RightArm  13.0263 -6.17303 46.6733
RightForeArm  -4.60071 18.7619 5.03253
RightHand  -0.752668 4.83118 -8.81377
LeftUpLeg  -6.54113 4.65783 -5.14509
LeftLeg  15.2878 -2.35743 -1.25666
LeftFoot  -1.76399 -0.0898632 1.18977
LeftToes  -5.63919e-011 3.32596e-011 1.92487e-011
726
root  -6.38031 38.785 7.42803 -139.144 -82.6003 129.425
RightUpLeg  9.08975 -2.77824 -12.2263
RightLeg  45.5742 2.37694 2.2727
RightFoot  -5.52148 -0.480386 8.58719
RightToes  -8.73116e-010 0 -3.6325e-017
Spine  11.7377 1.45747 2.77107
Spine1  8.46571 3.79576 -10.2866
HEad  -5.79406 1.56886 -6.96395
LeftShoulder1  -0.116551 3.82354 -30.3261
LeftArm  -5.20269 28.3302 -32.3351
LeftForeArm  23.4166 -7.65145 -6.85213
LeftHand  -0.0673253 7.25437 -2.02022
RightShoulder  -0.507158 -5.02998 26.4129
RightArm  13.7573 -4.41258 47.1965
RightForeArm  -4.55634 18.733 5.09376
RightHand  -0.670168 4.34986 -8.25293
LeftUpLeg  -8.37423 4.2849 -5.33122
LeftLeg  15.153 -1.13456 -0.807453
LeftFoot  -0.171374 -0.0896334 0.930428
LeftToes  -5.63919e-011 3.32596e-011 1.92487e-011
727
root  -5.1402 38.6093 7.50627 -143.515 -81.6754 133.967
RightUpLeg  13.32 -0.982304 -11.5494
RightLeg  39.8642 3.20158 2.60636
RightFoot  -6.8458 -0.515847 12.3426
RightToes  -8.73116e-010 0 -3.6325e-017
Spine  11.9023 1.78039 4.32297
Spine1  7.96333 4.5798 -11.3749
HEad  -5.06534 2.53948 -6.69123
LeftShoulder1  -0.135279 3.87742 -30.0855
LeftArm  -6.28309 28.8161 -33.5386
LeftForeArm  20.6994 -8.55067 -6.32586
LeftHand  -0.0419337 6.02657 -1.94334
RightShoulder  -0.517202 -5.06029 26.4206
RightArm  15.4024 -2.48058 47.4066
RightForeArm  -5.75945 19.1095 5.22406
RightHand  -0.815285 5.69188 -8.85688
LeftUpLeg  -10.3256 3.85737 -5.40593
LeftLeg  14.5602 0.443486 -0.352481
LeftFoot  1.27326 -0.00371733 -0.0300062
LeftToes  -5.63919e-011 3.32596e-011 1.92487e-011
728
root  -3.83649 38.4367 7.56943 -147.397 -80.5709 138.436
RightUpLeg  16.6163 0.376314 -10.9521
RightLeg  32.6168 3.36391 2.07657
RightFoot  -13.1724 0.148557 14.953
RightToes  -8.73116e-010 0 -3.6325e-017
Spine  11.792 1.89193 5.89622
Spine1  7.6598 5.20253 -12.4112
HEad  -4.89978 2.1604 -7.12112
LeftShoulder1  -0.140172 3.89363 -29.8273
LeftArm  -6.71822 28.0615 -35.1318
LeftForeArm  19.4711 -9.26636 -6.22723
LeftHand  -0.0397062 5.80957 -1.59401
RightShoulder  -0.485953 -4.96818 26.3441
RightArm  16.4975 -0.22689 48.1077
RightForeArm  -4.8483 19.7951 5.16457
RightHand  -0.793021 4.74308 -9.35562
LeftUpLeg  -12.3715 3.57751 -5.20869
LeftLeg  13.1888 2.22374 -0.0694648
LeftFoot  2.46653 0.192662 -1.71203
LeftToes  -5.63919e-011 3.32596e-011 1.92487e-011
729
root  -2.40626 38.2663 7.63613 -151.515 -80.0245 143.243
RightUpLeg  18.2879 0.645912 -10.195
RightLeg  25.222 3.84034 1.74518
RightFoot  -19.6846 0.872714 13.977
RightToes  -8.73116e-010 0 -3.6325e-017
Spine  12.0744 1.56469 7.84964
Spine1  7.45889 5.35215 -13.0563
HEad  -6.2184 3.00947 -7.88735
LeftShoulder1  -0.101963 3.78471 -30.1017
LeftArm  -6.69858 25.8836 -36.5021
LeftForeArm  19.6778 -9.87965 -6.30421
LeftHand  -0.0441995 6.2305 -1.77998
RightShoulder  -0.461484 -4.90129 26.1421
RightArm  17.4945 2.9524 49.2404
RightForeArm  -4.85934 19.6725 5.24022
RightHand  -0.888871 6.07044 -9.30212
LeftUpLeg  -14.4525 3.16192 -4.38658
LeftLeg  11.4662 3.45983 0.0417685
LeftFoot  3.40028 0.427942 -3.46985
LeftToes  -5.63919e-011 3.32596e-011 1.92487e-011
730
root  -0.90021 38.2174 7.75114 -159.845 -79.9382 151.592
RightUpLeg  18.056 -0.209 -9.02254
RightLeg  21.4108 4.414 1.69853
RightFoot  -22.3542 0.713985 8.89265
RightToes  -8.73116e-010 0 -3.6325e-017
Spine  14.0612 0.546938 11.0017
Spine1  6.56326 5.03364 -13.8188
HEad  -8.14189 4.23299 -8.8399
LeftShoulder1  -0.133603 3.865 -30.9149
LeftArm  -4.74289 22.231 -36.814
LeftForeArm  20.4306 -10.4975 -7.05969
LeftHand  -0.0685399 7.87813 -1.29078
RightShoulder  -0.391052 -4.69304 25.9088
RightArm  18.8304 6.46657 50.423
RightForeArm  -4.97595 19.3012 5.38672
RightHand  -0.875277 5.8515 -9.33456
LeftUpLeg  -15.1861 3.35617 -2.63953
LeftLeg  8.7239 3.90883 -0.310384
LeftFoot  3.30498 0.565117 -4.54476
LeftToes  -5.63919e-011 3.32596e-011 1.92487e-011
731
root  0.674836 38.2242 7.87464 -167.789 -80.2969 159.951
RightUpLeg  15.8303 -1.64335 -7.32249
RightLeg  20.1982 3.83415 1.34871
RightFoot  -23.3797 0.432482 5.58375
RightToes  -8.73116e-010 0 -3.6325e-017
Spine  15.4096 -0.404849 13.6274
Spine1  6.66303 4.51379 -13.6596
HEad  -10.0617 5.01203 -10.3067
LeftShoulder1  -0.070087 3.69103 -31.358
LeftArm  -3.69284 17.3233 -38.3704
LeftForeArm  24.0902 -10.4051 -7.57367
LeftHand  -0.0241156 5.01325 -1.59905
RightShoulder  -0.358776 -4.58635 26.0991
RightArm  20.3538 10.7874 50.8801
RightForeArm  -5.12111 17.9496 5.9274
RightHand  -0.888458 5.93998 -9.40726
LeftUpLeg  -16.2288 3.54442 -0.908362
LeftLeg  5.9592 3.46136 -0.703144
LeftFoot  0.683991 0.45517 -4.3548
LeftToes  -5.63919e-011 3.32596e-011 1.92487e-011
